# xmcd
#
# Track frame offsets:
#	150
#	11137
#	23995
#	38141
#	50420
#	64503
#	77956
#	90789
#	105989
#	120058
#	131924
#	144199
#	156465
#	166730
#	180206
#	191987
#	206379
#	217757
#	229250
#	242838
#
# Disc length: 3386 seconds
#
# Revision: 1
# Processed by: cddbd v1.5.2PL0 Copyright (c) Steve Scherf et al.
# Submitted via: audiograbber 1.83.01
#
DISCID=fa0d3814
DTITLE=The Birth of Rock 'n' Roll - CD1: Blues 'n' Boogie
DYEAR=2006
DGENRE=Blues
TTITLE0=Shout for Joy - Albert Ammons
TTITLE1=Roll 'em Pete - Pete Johnson with Big Joe Turner
TTITLE2=Midnight Special - Leadbelly
TTITLE3=Caldonia - Louis Jordan
TTITLE4=The Honeydripper - Joe Liggins
TTITLE5=RM Blues - Roy Milton's Solid Senders
TTITLE6=Chicken Shack Boogie - Amos Milburn
TTITLE7=Guitar Boogie - Arthur Smith
TTITLE8=The Huckleback - Paul Williams
TTITLE9=The Fat Man - Fats Domino
TTITLE10=Breaking Up The House - Tiny Bradshaw
TTITLE11=Bloodshot Eyes - Wyonie Harris
TTITLE12=We're Gonna Rock - Cecil Gant
TTITLE13=Good Rockin' Tonight - Roy Brown
TTITLE14=Rock The Joint - Jimmy Preston
TTITLE15=Reconsider Baby - Lowell Fulston
TTITLE16=She's Dynamite - B.B. King
TTITLE17=Lawdy Miss Clawdy - Lloyd Price
TTITLE18=Shake Rattle and Roll - Big Jo Turner
TTITLE19=Bo Diddley - Bo Diddley
EXTD=
EXTT0=
EXTT1=
EXTT2=
EXTT3=
EXTT4=
EXTT5=
EXTT6=
EXTT7=
EXTT8=
EXTT9=
EXTT10=
EXTT11=
EXTT12=
EXTT13=
EXTT14=
EXTT15=
EXTT16=
EXTT17=
EXTT18=
EXTT19=
PLAYORDER=
